<svg xmlns="http://www.w3.org/2000/svg" viewBox="0 0 687.39 753.14"><defs><style>.cls-1{fill:#313501;}.cls-2{fill:#fff;}.cls-3{fill:#7b8403;}.cls-4{fill:#adc405;}</style></defs><title>sss-mark</title><g id="Layer_2" data-name="Layer 2"><g id="Layer_2-2" data-name="Layer 2"><path class="cls-1" d="M651.39,505.12q0,48.24-18.41,88.87-18.42,38.71-55.23,68.56-34.9,26.66-84.42,41.26-47.61,13.32-106.65,13.33-12.91,0-25.46-.76-13.44.77-27.54.76-13.17,0-25.94-.79-13.7.8-28.06.79a388.57,388.57,0,0,1-84.42-8.89,291.62,291.62,0,0,1-70.47-26c-21.58-11.84-39.32-28.31-57.13-45.7C24.37,594.24,30,543.4,57.45,527.23c13.7-8.07,89.56-49.41,89.56-49.41a21.18,21.18,0,0,1,10-2.65c7.7,0,15.49,4.64,22.83,14.18,12.24-6.69,21.13-11.53,21.13-11.53a21.18,21.18,0,0,1,10-2.65c7.6,0,15.28,4.52,22.54,13.8L254,477.82a21.18,21.18,0,0,1,10-2.65c11.62,0,23.43,10.56,33.63,32.56,13.18,28.43,35.56,47.92,59.05,60.15,21.41-19.61,27.94-52.37,8.64-75.31-16.31-19.38-97-43-130-56.5s-58.52-25.32-80.11-38.87Q117.81,375,98.13,352.77q-22.84-24.12-33-52.69Q53.71,271.5,53.7,237.87q0-44.43,18.41-82.52,17.76-36.81,53.32-64.75,32.37-27.29,79.35-41.26A363,363,0,0,1,303.17,36q13.41,0,26.46,1,13.65-1,27.54-1,13.16,0,26,1,13.41-1,27-1a330.83,330.83,0,0,1,68.56,7h.63a269.44,269.44,0,0,1,59,21H539c18.19,9.74,29,18.73,48.25,34.91,38.09,32,34.28,74.07-.53,98.16-30.27,21-40.34,24-54.86,29.94-9.54,3.91-22.61,1.32-35.11-7.57-6.41,3-11.75,5-17.89,7.57-9.65,3.95-22.88,1.27-35.51-7.86-6.67,3.22-12.16,5.26-18.49,7.86-14.52,5.95-37.18-3.14-53.63-26.59-14.36-20.47-30.77-35-47.51-44.7-.19.19-.37.39-.55.58-21.81,24.15-14.33,68.66,10,87.5C356.66,261.89,404.43,275,433,288s104.11,42.75,124.42,55.86Q589.83,364.2,610.13,387q19.66,22.86,31.1,54A209.31,209.31,0,0,1,651.39,505.12Z"/><path class="cls-2" d="M386.68,753.14c-8.62,0-17.2-.24-25.53-.7-8.89.47-18.12.7-27.47.7-8.77,0-17.51-.25-26-.73-9.07.48-18.48.73-28,.73a426.36,426.36,0,0,1-92.22-9.75l-.38-.09A329,329,0,0,1,107.95,714l-.47-.25c-25.73-14.12-46.2-33.18-65-51.5C11.6,632.09-3.63,594.11.73,558.09,4,531.26,18,508.71,39.17,496.22c14.07-8.29,87.5-48.31,90.62-50l.29-.15a57,57,0,0,1,25.82-6.87c-6.9-3.72-13.27-7.43-19.38-11.25-28-16.67-49.29-33.31-64.93-50.84-18.26-19.39-31.76-41-40.15-64.3-9.11-23.06-13.73-48.27-13.73-74.92,0-35,7.4-68,22-98.19,14.1-29.23,35.3-55.14,63-77,25.22-21.13,56.11-37.23,91.82-47.84l.54-.16A400.75,400.75,0,0,1,303.17,0c8.83,0,17.73.31,26.5.91a402.37,402.37,0,0,1,53.52,0c8.87-.58,17.93-.88,27-.88a369.77,369.77,0,0,1,72.22,7h1.15l4.07,1a312.7,312.7,0,0,1,59,20h1.48l8,4.26c21.9,11.73,35.54,23.21,54.43,39.1,27.1,22.8,41.24,52,39.82,82.12-1.34,28.51-17,55.19-43,73.19-30.42,21.06-44.18,26.59-57.48,31.94l-4.19,1.7c-15.37,6.3-33.26,5.78-50.45-1l-2.55,1a60.59,60.59,0,0,1-23,4.42l15.73,6.65c43.8,18.46,76,32.31,91.42,42.18C601,328.75,621.31,345.44,637,363.11l.4.45c15.89,18.47,28.54,40.35,37.6,65l.49,1.44a246.3,246.3,0,0,1,11.87,75.08c0,37.17-7.27,72.07-21.62,103.73l-.28.61c-14.56,30.6-36.45,57.88-65.08,81.07l-.81.64c-26.66,20.36-59,36.23-96.08,47.18l-.49.14C468.26,748.21,429.11,753.14,386.68,753.14Zm-25.39-72.82,2.12.13c7.54.46,15.36.69,23.27.69,35.77,0,68.3-4,96.71-11.93,28.33-8.38,52.58-20.14,72.1-35,19.91-16.22,35-34.86,44.84-55.43,10-22.18,15.06-47,15.06-73.7a174.26,174.26,0,0,0-8.22-52.43,138.3,138.3,0,0,0-24.14-42c-11.21-12.54-26.25-24.78-44.73-36.37l-.39-.25c-11.2-7.23-52.93-24.82-80.55-36.46-15.94-6.72-29.7-12.52-39.29-16.89-8.44-3.85-19.52-8-31.25-12.36-27.4-10.22-55.74-20.79-75.65-36.2-20.34-15.75-34-41.94-36.47-70.08-2.4-26.95,5.34-51.81,21.78-70l.53-.58c.44-.47.85-.91,1.28-1.33l19.59-19.59,24,13.92c22.64,13.16,42.45,31.71,58.89,55.15,5.63,8,11.15,11.46,13.82,12.61l1.35-.54c4.22-1.7,7.86-3.16,11.83-5.08l19.34-9.34,17.4,12.58a21.45,21.45,0,0,0,4.08,2.38l1.24-.5c4.11-1.65,7.66-3.08,11.52-4.92l19.1-9.09L517.65,190a21.08,21.08,0,0,0,3.91,2.25l1.33-.53c10.94-4.4,19.58-7.88,43.38-24.35,4.36-3,11.72-9.28,12.1-17.38.33-7.11-4.86-15.73-14.26-23.64-16.48-13.87-24.93-20.84-36.42-27.56l-5.39-2.7A231.68,231.68,0,0,0,475.06,79H475l-3.68-.78A296.36,296.36,0,0,0,410.17,72c-8.22,0-16.44.29-24.43.88l-2.67.19-2.67-.2a329.22,329.22,0,0,0-48.12,0l-2.69.2-2.69-.2c-7.83-.59-15.82-.9-23.73-.9a328.82,328.82,0,0,0-88.41,11.93c-26.26,7.84-48.51,19.34-66.13,34.2l-1,.79C128.43,134,113.92,151.54,104.54,171c-10,20.65-14.83,42.51-14.83,66.88,0,17.72,3,34.15,8.85,48.85L99,288c5,14.19,13.53,27.65,25.23,40l.82.89c10.56,11.93,26.89,24.49,48.54,37.33l.77.47c17.78,11.16,39.4,21.6,74.63,36.06,8.08,3.31,20.28,7.64,33.21,12.22,55.85,19.79,93.73,34.27,110.68,54.41A84.61,84.61,0,0,1,412,536.48,97.37,97.37,0,0,1,381,594.43l-18.58,17-22.35-11.64c-34-17.7-60-44.3-75.09-76.94a78.29,78.29,0,0,0-4.11-7.8l-10,5.49-26.8,14.66-15.88-20.3-11,6-27,14.77-16-20.77C129,528.68,85.1,552.73,75.72,558.25c-1,.6-2.9,3.45-3.51,8.48s-.91,23,20.6,44c15.76,15.39,31.38,30,49.07,39.77a257.08,257.08,0,0,0,61.36,22.61,354.48,354.48,0,0,0,76.44,8c8.88,0,17.62-.25,26-.73l2.16-.12,2.16.13c7.7.48,15.68.72,23.71.72,8.74,0,17.31-.24,25.49-.7ZM149.38,509.1h0Z"/><path class="cls-1" d="M164.45,527.23c13.7-8.08,89.56-49.41,89.56-49.41h0c14.67-7.82,30.5,1.52,43.67,29.91,26.35,56.84,89.47,77.9,124.68,76.84,50-1.5,78.85-57.72,50-92-16.31-19.38-97-43-130-56.5s-58.52-25.32-80.1-38.87Q224.8,375,205.13,352.77q-22.85-24.12-33-52.69-11.43-28.57-11.43-62.21,0-44.42,18.41-82.52,17.76-36.81,53.32-64.75,32.37-27.29,79.35-41.26A363.15,363.15,0,0,1,410.17,36a330.69,330.69,0,0,1,68.56,7h.64a269.68,269.68,0,0,1,59,20.95H539c18.19,9.74,29,18.73,48.24,34.91,38.09,32.05,34.28,74.07-.53,98.16-30.27,20.95-40.34,24-54.86,29.93s-37.18-3.14-53.63-26.58c-52.26-74.49-131.73-70-155.06-44.12-21.81,24.15-14.33,68.67,10,87.5C356.66,261.89,404.43,275,433,288s104.11,42.75,124.42,55.86Q589.82,364.2,610.13,387q19.67,22.85,31.1,54a209.38,209.38,0,0,1,10.16,64.12q0,48.25-18.41,88.87-18.42,38.72-55.23,68.56-34.91,26.66-84.43,41.26-47.61,13.33-106.65,13.33a388.49,388.49,0,0,1-84.43-8.88,291.66,291.66,0,0,1-70.46-26c-21.58-11.84-39.33-28.32-57.13-45.71C131.37,594.24,137,543.4,164.45,527.23Z"/><path class="cls-3" d="M111.45,527.23c13.7-8.08,89.56-49.41,89.56-49.41h0c14.67-7.82,30.5,1.52,43.67,29.91,26.35,56.84,89.47,77.9,124.68,76.84,50-1.5,78.85-57.72,50-92-16.31-19.38-97-43-130-56.5s-58.52-25.32-80.1-38.87Q171.8,375,152.13,352.77q-22.85-24.12-33-52.69-11.43-28.57-11.43-62.21,0-44.42,18.41-82.52,17.76-36.81,53.32-64.75,32.37-27.29,79.35-41.26A363.15,363.15,0,0,1,357.17,36a330.69,330.69,0,0,1,68.56,7h.64a269.68,269.68,0,0,1,59,20.95H486c18.19,9.74,29,18.73,48.24,34.91,38.09,32.05,34.28,74.07-.53,98.16-30.27,20.95-40.34,24-54.86,29.93s-37.18-3.14-53.63-26.58c-52.26-74.49-131.73-70-155.06-44.12-21.81,24.15-14.33,68.67,10,87.5C303.66,261.89,351.43,275,380,288s104.11,42.75,124.42,55.86Q536.82,364.2,557.13,387q19.67,22.85,31.1,54a209.38,209.38,0,0,1,10.16,64.12q0,48.25-18.41,88.87-18.42,38.72-55.23,68.56-34.91,26.66-84.43,41.26-47.61,13.33-106.65,13.33a388.49,388.49,0,0,1-84.43-8.88,291.66,291.66,0,0,1-70.46-26c-21.58-11.84-39.33-28.32-57.13-45.71C78.37,594.24,84,543.4,111.45,527.23Z"/><path class="cls-4" d="M57.45,527.23c13.7-8.08,89.56-49.41,89.56-49.41h0c14.67-7.82,30.5,1.52,43.67,29.91,26.35,56.84,89.47,77.9,124.68,76.84,50-1.5,78.85-57.72,50-92-16.31-19.38-97-43-130-56.5s-58.52-25.32-80.1-38.87Q117.8,375,98.13,352.77q-22.85-24.12-33-52.69Q53.7,271.51,53.7,237.87q0-44.42,18.41-82.52,17.76-36.81,53.32-64.75,32.37-27.29,79.35-41.26A363.15,363.15,0,0,1,303.17,36a330.69,330.69,0,0,1,68.56,7h.64a269.68,269.68,0,0,1,59,20.95H432c18.19,9.74,29,18.73,48.24,34.91,38.09,32.05,34.28,74.07-.53,98.16-30.27,20.95-40.34,24-54.86,29.93s-37.18-3.14-53.63-26.58c-52.26-74.49-131.73-70-155.06-44.12-21.81,24.15-14.33,68.67,10,87.5C249.66,261.89,297.43,275,326,288s104.11,42.75,124.42,55.86Q482.82,364.2,503.13,387q19.67,22.85,31.1,54a209.38,209.38,0,0,1,10.16,64.12q0,48.25-18.41,88.87-18.42,38.72-55.23,68.56-34.91,26.66-84.43,41.26-47.61,13.33-106.65,13.33a388.49,388.49,0,0,1-84.43-8.88,291.66,291.66,0,0,1-70.46-26c-21.58-11.84-39.33-28.32-57.13-45.71C24.37,594.24,30,543.4,57.45,527.23Z"/></g></g></svg>